<?xml version="1.0" standalone="no"?>
<!DOCTYPE svg PUBLIC "-//W3C//DTD SVG 20010904//EN"
 "http://www.w3.org/TR/2001/REC-SVG-20010904/DTD/svg10.dtd">
<svg version="1.0" xmlns="http://www.w3.org/2000/svg"
 width="512.000000pt" height="512.000000pt" viewBox="0 0 512.000000 512.000000"
 preserveAspectRatio="xMidYMid meet">
<metadata>
Created by potrace 1.14, written by Peter Selinger 2001-2017
</metadata>
<g transform="translate(0.000000,512.000000) scale(0.100000,-0.100000)"
fill="#000000" stroke="none">
<path d="M2420 4899 c-315 -17 -610 -96 -900 -240 -259 -129 -454 -272 -650
-476 -183 -190 -303 -364 -421 -608 -160 -331 -229 -639 -229 -1014 0 -204 8
-293 46 -480 68 -340 248 -721 467 -991 394 -483 956 -790 1576 -861 136 -15
494 -7 621 15 242 42 448 108 665 215 472 232 840 602 1071 1076 162 334 235
652 235 1030 0 370 -74 688 -236 1020 -416 855 -1290 1366 -2245 1314z m416
-154 c650 -86 1209 -436 1570 -985 197 -300 326 -678 350 -1027 l7 -100 -79
-5 c-196 -11 -328 -142 -344 -341 -8 -97 -18 -119 -65 -141 -46 -22 -83 -14
-121 25 l-29 30 -5 402 c-5 391 -6 403 -27 443 -47 88 -155 154 -253 154 -98
0 -206 -66 -253 -154 -22 -41 -22 -46 -27 -636 -6 -656 -2 -625 -70 -656 -30
-15 -39 -15 -75 -3 -79 28 -75 -27 -75 935 0 941 3 902 -64 981 -73 85 -192
120 -298 89 -69 -20 -147 -86 -180 -154 l-23 -47 -5 -681 c-5 -648 -6 -683
-24 -703 -30 -33 -78 -45 -119 -27 -60 24 -61 34 -67 326 -4 228 -7 270 -23
301 -75 152 -276 190 -395 76 -19 -18 -43 -50 -55 -72 -22 -39 -22 -49 -27
-615 -5 -528 -6 -578 -23 -603 -51 -78 -183 -78 -234 0 -17 25 -18 89 -23 908
-6 987 0 912 -81 1000 -133 144 -366 110 -461 -68 -23 -42 -23 -43 -28 -637
-6 -676 -2 -644 -86 -681 -60 -27 -108 -17 -155 30 -35 35 -36 38 -42 138 -5
65 -15 123 -28 158 -27 73 -104 156 -177 192 -53 26 -67 28 -209 31 l-153 4 0
38 c0 59 28 262 51 370 45 208 150 468 269 665 337 558 938 951 1585 1038 149
20 425 21 571 2z m298 -1144 c16 -9 37 -32 47 -51 18 -33 19 -75 19 -890 1
-688 3 -862 14 -893 57 -159 253 -216 389 -113 19 14 47 50 63 78 l29 53 5
590 c5 543 6 593 23 618 54 83 171 85 231 4 20 -27 21 -44 26 -425 5 -382 6
-399 26 -437 62 -115 178 -166 298 -131 107 31 176 130 176 251 0 139 93 235
229 235 l54 0 -7 -101 c-21 -301 -122 -635 -272 -901 -351 -622 -966 -1032
-1674 -1118 -109 -13 -392 -13 -500 0 -1057 130 -1866 975 -1946 2029 l-7 93
134 -3 c121 -4 138 -6 179 -29 24 -14 58 -44 74 -68 27 -38 31 -52 37 -150 9
-156 48 -231 151 -288 46 -25 63 -29 133 -29 67 0 88 5 131 27 29 15 68 46 87
69 68 79 67 69 67 703 0 636 -2 616 69 663 61 41 158 22 193 -39 10 -18 14
-201 18 -898 l5 -875 24 -53 c49 -108 171 -181 286 -169 101 10 194 78 236
171 17 37 19 72 19 366 0 179 3 437 7 575 l6 250 28 27 c39 39 97 39 141 -1
l33 -29 5 -274 c5 -268 5 -274 30 -318 83 -147 279 -171 397 -48 71 73 67 39
73 788 4 485 8 681 17 695 40 70 122 89 197 46z"/>
</g>
</svg>
